<svg width="40" height="40" viewBox="0 0 40 40" fill="none" xmlns="http://www.w3.org/2000/svg">
<path d="M5.5 9C4.67157 9 4 9.67157 4 10.5C4 11.3284 4.67157 12 5.5 12H34.5C35.3284 12 36 11.3284 36 10.5C36 9.67157 35.3284 9 34.5 9H5.5Z" fill="black"/>
<path d="M4 20.5C4 19.6716 4.67157 19 5.5 19H34.5C35.3284 19 36 19.6716 36 20.5C36 21.3284 35.3284 22 34.5 22H5.5C4.67157 22 4 21.3284 4 20.5Z" fill="black"/>
<path d="M4 30.5C4 29.6716 4.67157 29 5.5 29H34.5C35.3284 29 36 29.6716 36 30.5C36 31.3284 35.3284 32 34.5 32H5.5C4.67157 32 4 31.3284 4 30.5Z" fill="black"/>
</svg>
