<svg width="109" height="38" viewBox="0 0 109 38" fill="none" xmlns="http://www.w3.org/2000/svg">
<g clip-path="url(#clip0_13_6)">
<path d="M8.624 26.432C8.496 26.432 8.432 26.368 8.432 26.24C8.432 26.24 8.432 26.232 8.432 26.216C8.432 26.216 8.44 26.208 8.456 26.192C8.584 25.92 8.672 25.648 8.72 25.376C8.768 25.088 8.8 24.776 8.816 24.44C8.848 24.296 8.92 24.232 9.032 24.248C9.064 23.992 9.144 23.552 9.272 22.928C9.4 22.304 9.544 21.576 9.704 20.744C9.88 19.896 10.056 19.016 10.232 18.104C10.424 17.192 10.6 16.328 10.76 15.512C10.92 14.68 11.048 13.968 11.144 13.376C11.24 12.784 11.288 12.392 11.288 12.2C11.208 12.152 11 12.12 10.664 12.104C10.328 12.088 9.944 12.08 9.512 12.08C9.032 12.08 8.536 12.088 8.024 12.104C7.512 12.12 7.048 12.136 6.632 12.152C6.232 12.152 5.944 12.152 5.768 12.152C5.64 12.152 5.576 12.088 5.576 11.96C5.576 11.768 5.704 11.648 5.96 11.6C6.216 11.536 6.4 11.496 6.512 11.48C6.752 11.464 7.128 11.456 7.64 11.456C8.152 11.44 8.712 11.432 9.32 11.432C9.928 11.416 10.496 11.408 11.024 11.408C11.568 11.408 11.976 11.408 12.248 11.408H17.624C17.752 11.408 17.816 11.456 17.816 11.552C17.816 11.696 17.728 11.816 17.552 11.912C17.392 11.992 17.256 12.04 17.144 12.056C17.032 12.072 16.872 12.088 16.664 12.104C16.472 12.12 16.264 12.128 16.04 12.128C15.72 12.128 15.344 12.12 14.912 12.104C14.48 12.088 14.08 12.08 13.712 12.08C13.44 12.08 13.2 12.088 12.992 12.104C12.8 12.12 12.664 12.152 12.584 12.2C12.456 12.712 12.304 13.352 12.128 14.12C11.952 14.888 11.768 15.712 11.576 16.592C11.384 17.456 11.2 18.312 11.024 19.16C10.864 20.008 10.712 20.776 10.568 21.464C10.44 22.152 10.336 22.688 10.256 23.072C10.144 23.68 10.056 24.264 9.992 24.824C9.944 25.368 9.92 25.712 9.92 25.856C9.92 25.92 9.84 25.984 9.68 26.048C9.52 26.112 9.352 26.168 9.176 26.216C9 26.264 8.88 26.296 8.816 26.312C8.784 26.392 8.72 26.432 8.624 26.432ZM12.3789 33.968C11.6909 33.968 11.0829 33.8 10.5549 33.464C10.0269 33.128 9.62687 32.64 9.35487 32C9.24287 31.728 9.14687 31.44 9.06687 31.136C8.98687 30.832 8.94687 30.528 8.94687 30.224C8.94687 30.128 8.97087 29.96 9.01888 29.72C9.05087 29.48 9.13087 29.36 9.25887 29.36C9.35487 29.36 9.41087 29.432 9.42687 29.576C9.44287 29.72 9.45087 29.824 9.45087 29.888C9.45087 30.272 9.53887 30.656 9.71487 31.04C9.89087 31.44 10.0829 31.8 10.2909 32.12C10.5309 32.488 10.8269 32.824 11.1789 33.128C11.5309 33.432 11.9389 33.584 12.4029 33.584C13.0269 33.584 13.6029 33.368 14.1309 32.936C14.6589 32.504 15.1389 31.928 15.5709 31.208C16.0189 30.504 16.4189 29.72 16.7709 28.856C17.1229 27.992 17.4269 27.12 17.6829 26.24C17.9389 25.36 18.1469 24.544 18.3069 23.792C18.4829 23.024 18.6029 22.4 18.6669 21.92L18.8589 20.576C18.7469 20.832 18.5309 21.192 18.2109 21.656C17.9069 22.104 17.5469 22.592 17.1309 23.12C16.7309 23.632 16.3069 24.12 15.8589 24.584C15.4269 25.048 15.0109 25.432 14.6109 25.736C14.2109 26.024 13.8669 26.168 13.5789 26.168C13.4189 26.168 13.3069 26.128 13.2429 26.048C13.1949 25.968 13.1709 25.848 13.1709 25.688C13.1709 25.496 13.2189 25.224 13.3149 24.872C13.4269 24.52 13.5549 24.144 13.6989 23.744C13.8429 23.344 13.9869 22.968 14.1309 22.616C14.2749 22.264 14.3789 22 14.4429 21.824C14.4749 21.744 14.5309 21.584 14.6109 21.344C14.7069 21.088 14.8029 20.816 14.8989 20.528C15.0109 20.24 15.1069 19.984 15.1869 19.76C15.2669 19.536 15.3069 19.408 15.3069 19.376C15.3069 19.328 15.2509 19.304 15.1389 19.304C15.0269 19.304 14.9709 19.28 14.9709 19.232L15.1149 18.8C15.1949 18.576 15.2669 18.352 15.3309 18.128C15.4109 17.888 15.4909 17.664 15.5709 17.456C15.6189 17.328 15.7549 17.208 15.9789 17.096C16.2189 16.984 16.4109 16.928 16.5549 16.928C16.8109 16.928 16.9389 17.072 16.9389 17.36C16.9389 17.584 16.9069 17.848 16.8429 18.152C16.7789 18.456 16.6989 18.72 16.6029 18.944L14.8509 23.096C14.7869 23.256 14.6909 23.496 14.5629 23.816C14.4509 24.12 14.3949 24.36 14.3949 24.536C14.3949 24.6 14.4109 24.664 14.4429 24.728C14.4749 24.776 14.5229 24.8 14.5869 24.8C14.7309 24.8 14.8909 24.736 15.0669 24.608C15.2589 24.48 15.4429 24.336 15.6189 24.176C15.7949 24 15.9229 23.872 16.0029 23.792C16.7549 23.04 17.3789 22.24 17.8749 21.392C18.3869 20.544 18.8749 19.656 19.3389 18.728C19.3229 18.648 19.3149 18.576 19.3149 18.512C19.3149 18.448 19.3149 18.384 19.3149 18.32C19.3149 17.968 19.4669 17.728 19.7709 17.6C20.0909 17.456 20.3949 17.384 20.6829 17.384C20.7949 17.384 20.8989 17.408 20.9949 17.456C21.1069 17.504 21.1629 17.592 21.1629 17.72C21.1629 17.784 21.0989 17.976 20.9709 18.296C20.8589 18.616 20.7149 18.984 20.5389 19.4C20.3789 19.816 20.2269 20.208 20.0829 20.576C19.9389 20.944 19.8429 21.208 19.7949 21.368C19.5709 22.2 19.3469 23.096 19.1229 24.056C18.9149 25 18.6669 25.96 18.3789 26.936C18.1069 27.912 17.7629 28.84 17.3469 29.72C16.9309 30.6 16.4109 31.384 15.7869 32.072C15.1789 32.776 14.4349 33.328 13.5549 33.728C13.2189 33.888 12.8269 33.968 12.3789 33.968ZM24.7959 26.432C24.6679 26.432 24.6039 26.368 24.6039 26.24C24.6039 26.24 24.6039 26.232 24.6039 26.216C24.6039 26.216 24.6119 26.208 24.6279 26.192C24.7559 25.92 24.8439 25.648 24.8919 25.376C24.9399 25.088 24.9719 24.776 24.9879 24.44C25.0199 24.296 25.0919 24.232 25.2039 24.248C25.2359 23.992 25.3159 23.552 25.4439 22.928C25.5719 22.304 25.7159 21.576 25.8759 20.744C26.0519 19.896 26.2279 19.016 26.4039 18.104C26.5959 17.192 26.7719 16.328 26.9319 15.512C27.0919 14.68 27.2199 13.968 27.3159 13.376C27.4119 12.784 27.4599 12.392 27.4599 12.2C27.3799 12.152 27.1719 12.12 26.8359 12.104C26.4999 12.088 26.1159 12.08 25.6839 12.08C25.2039 12.08 24.7079 12.088 24.1959 12.104C23.6839 12.12 23.2199 12.136 22.8039 12.152C22.4039 12.152 22.1159 12.152 21.9399 12.152C21.8119 12.152 21.7479 12.088 21.7479 11.96C21.7479 11.768 21.8759 11.648 22.1319 11.6C22.3879 11.536 22.5719 11.496 22.6839 11.48C22.9239 11.464 23.2999 11.456 23.8119 11.456C24.3239 11.44 24.8839 11.432 25.4919 11.432C26.0999 11.416 26.6679 11.408 27.1959 11.408C27.7399 11.408 28.1479 11.408 28.4199 11.408H33.7959C33.9239 11.408 33.9879 11.456 33.9879 11.552C33.9879 11.696 33.8999 11.816 33.7239 11.912C33.5639 11.992 33.4279 12.04 33.3159 12.056C33.2039 12.072 33.0439 12.088 32.8359 12.104C32.6439 12.12 32.4359 12.128 32.2119 12.128C31.8919 12.128 31.5159 12.12 31.0839 12.104C30.6519 12.088 30.2519 12.08 29.8839 12.08C29.6119 12.08 29.3719 12.088 29.1639 12.104C28.9719 12.12 28.8359 12.152 28.7559 12.2C28.6279 12.712 28.4759 13.352 28.2999 14.12C28.1239 14.888 27.9399 15.712 27.7479 16.592C27.5559 17.456 27.3719 18.312 27.1959 19.16C27.0359 20.008 26.8839 20.776 26.7399 21.464C26.6119 22.152 26.5079 22.688 26.4279 23.072C26.3159 23.68 26.2279 24.264 26.1639 24.824C26.1159 25.368 26.0919 25.712 26.0919 25.856C26.0919 25.92 26.0119 25.984 25.8519 26.048C25.6919 26.112 25.5239 26.168 25.3479 26.216C25.1719 26.264 25.0519 26.296 24.9879 26.312C24.9559 26.392 24.8919 26.432 24.7959 26.432ZM43.1163 26.168C42.3483 26.168 41.7163 26.056 41.2203 25.832C40.7403 25.608 40.3803 25.256 40.1403 24.776C39.9163 24.296 39.8043 23.688 39.8043 22.952V14.288C39.8043 13.504 39.9003 12.888 40.0923 12.44C40.3003 11.992 40.6123 11.672 41.0283 11.48C41.4443 11.288 41.9563 11.192 42.5643 11.192C42.8843 11.192 43.2123 11.176 43.5483 11.144C43.8843 11.096 44.1963 11.04 44.4843 10.976C44.7723 10.912 45.0123 10.84 45.2043 10.76C45.4123 10.68 45.5563 10.608 45.6363 10.544V11.312C45.6363 11.472 45.4763 11.648 45.1563 11.84C44.8363 12.032 44.3483 12.136 43.6923 12.152H43.3323C42.8683 12.152 42.4843 12.208 42.1803 12.32C41.8923 12.432 41.6683 12.64 41.5083 12.944C41.3643 13.232 41.2843 13.64 41.2683 14.168V15.968C41.4123 15.68 41.6763 15.424 42.0603 15.2C42.4603 14.976 42.9883 14.864 43.6443 14.864C44.3323 14.864 44.8843 14.976 45.3003 15.2C45.7163 15.408 46.0203 15.736 46.2123 16.184C46.4203 16.632 46.5243 17.208 46.5243 17.912V22.616C46.5243 23.272 46.4683 23.832 46.3563 24.296C46.2443 24.744 46.0603 25.112 45.8043 25.4C45.5483 25.672 45.1963 25.872 44.7483 26C44.3163 26.112 43.7723 26.168 43.1163 26.168ZM43.1643 25.232C43.7243 25.232 44.1323 25.128 44.3883 24.92C44.6603 24.712 44.8363 24.432 44.9163 24.08C45.0123 23.712 45.0603 23.32 45.0603 22.904V18.08C45.0603 17.68 45.0203 17.312 44.9403 16.976C44.8603 16.64 44.6923 16.376 44.4363 16.184C44.1803 15.976 43.7643 15.872 43.1883 15.872C42.7243 15.872 42.3563 15.936 42.0843 16.064C41.8283 16.192 41.6363 16.36 41.5083 16.568C41.3963 16.76 41.3243 16.968 41.2923 17.192C41.2763 17.4 41.2683 17.6 41.2683 17.792V22.904C41.2683 23.32 41.3083 23.712 41.3883 24.08C41.4683 24.432 41.6443 24.712 41.9163 24.92C42.1883 25.128 42.6043 25.232 43.1643 25.232ZM48.4996 26V14.168H49.9876V17.864H52.3636C53.0996 17.864 53.6756 17.976 54.0916 18.2C54.5076 18.424 54.8036 18.76 54.9796 19.208C55.1556 19.656 55.2436 20.208 55.2436 20.864V22.064C55.2436 22.736 55.1956 23.32 55.0996 23.816C55.0036 24.312 54.8436 24.72 54.6196 25.04C54.3956 25.36 54.0916 25.6 53.7076 25.76C53.3236 25.92 52.8276 26 52.2196 26H48.4996ZM49.9876 25.136H51.9316C52.4596 25.136 52.8516 25.04 53.1076 24.848C53.3636 24.64 53.5316 24.36 53.6116 24.008C53.7076 23.656 53.7556 23.264 53.7556 22.832V21.152C53.7556 20.736 53.7156 20.352 53.6356 20C53.5716 19.648 53.4116 19.368 53.1556 19.16C52.8996 18.936 52.4916 18.824 51.9316 18.824H49.9876V25.136ZM57.5236 26V14.12H58.9876V26H57.5236ZM60.6736 26V25.136C60.9936 25.136 61.2576 24.992 61.4656 24.704C61.6896 24.4 61.8256 23.952 61.8736 23.36L62.6416 14.144H68.6416V26H67.1296V15.224H64.1296L63.3616 23.768C63.3456 23.976 63.3136 24.208 63.2656 24.464C63.2176 24.72 63.1296 24.968 63.0016 25.208C62.8896 25.432 62.7136 25.624 62.4736 25.784C62.2336 25.928 61.9136 26 61.5136 26H60.6736Z" fill="black"/>
<path d="M83.936 29C84.704 29 85.4 28.832 86.024 28.496C86.632 28.16 87.184 27.72 87.68 27.176C88.16 26.632 88.6 26.056 89 25.448C89.16 25.208 89.352 24.872 89.576 24.44C89.8 23.992 90.032 23.504 90.272 22.976C90.512 22.448 90.752 21.936 90.992 21.44C91.216 20.928 91.416 20.496 91.592 20.144C91.784 19.728 91.944 19.464 92.072 19.352C92.184 19.24 92.2 19.144 92.12 19.064C92.104 19.064 92.096 19.056 92.096 19.04C92.032 18.976 91.952 18.96 91.856 18.992C91.776 19.024 91.704 19.056 91.64 19.088C91.56 19.12 91.48 19.152 91.4 19.184C90.824 19.376 90.208 19.472 89.552 19.472C88.864 19.472 88.176 19.36 87.488 19.136C86.8 18.896 86.168 18.568 85.592 18.152C85.016 17.72 84.56 17.2 84.224 16.592C83.872 15.968 83.696 15.272 83.696 14.504C83.696 13.816 83.864 13.16 84.2 12.536C84.536 11.912 85.032 11.392 85.688 10.976C86.424 10.512 87.368 10.16 88.52 9.92C89.672 9.664 90.864 9.536 92.096 9.536C93.04 9.536 93.992 9.632 94.952 9.824C95.896 10 96.776 10.272 97.592 10.64C98.408 10.992 99.096 11.44 99.656 11.984C100.072 12.4 100.448 12.936 100.784 13.592C101.12 14.248 101.288 14.904 101.288 15.56C101.288 15.864 101.24 16.16 101.144 16.448C101 16.896 100.728 17.24 100.328 17.48C99.912 17.704 99.448 17.816 98.936 17.816C98.536 17.816 98.12 17.744 97.688 17.6C97.672 17.6 97.664 17.6 97.664 17.6C97.648 17.584 97.632 17.576 97.616 17.576C97.568 17.576 97.544 17.592 97.544 17.624C97.544 17.704 97.592 17.76 97.688 17.792C98.12 17.952 98.608 18.032 99.152 18.032C99.664 18.032 100.16 17.936 100.64 17.744C101.104 17.552 101.488 17.256 101.792 16.856C102.08 16.456 102.224 15.944 102.224 15.32C102.224 14.808 102.152 14.344 102.008 13.928C101.864 13.496 101.672 13.104 101.432 12.752C101.016 12.128 100.464 11.592 99.776 11.144C99.088 10.696 98.312 10.328 97.448 10.04C96.584 9.752 95.688 9.544 94.76 9.416C93.832 9.272 92.92 9.2 92.024 9.2C90.76 9.2 89.544 9.296 88.376 9.488C87.192 9.664 86.216 9.92 85.448 10.256C84.376 10.704 83.608 11.288 83.144 12.008C82.68 12.728 82.448 13.48 82.448 14.264C82.448 15.16 82.656 15.952 83.072 16.64C83.488 17.328 84.04 17.912 84.728 18.392C85.4 18.856 86.144 19.216 86.96 19.472C87.76 19.712 88.552 19.832 89.336 19.832C89.672 19.832 90.008 19.816 90.344 19.784C90.664 19.736 90.976 19.672 91.28 19.592C91.056 19.896 90.776 20.296 90.44 20.792C90.104 21.272 89.76 21.784 89.408 22.328C89.04 22.856 88.704 23.352 88.4 23.816C88.08 24.28 87.824 24.632 87.632 24.872C87.28 25.336 86.864 25.832 86.384 26.36C85.904 26.888 85.384 27.336 84.824 27.704C84.248 28.072 83.656 28.256 83.048 28.256C82.632 28.256 82.272 28.152 81.968 27.944C81.664 27.736 81.432 27.496 81.272 27.224C81.096 26.92 81.008 26.536 81.008 26.072C81.008 25.704 81.056 25.336 81.152 24.968C81.248 24.584 81.36 24.248 81.488 23.96C81.696 23.496 81.872 23.168 82.016 22.976C82.096 22.848 82.136 22.768 82.136 22.736C82.136 22.672 82.104 22.64 82.04 22.64C81.944 22.64 81.808 22.712 81.632 22.856C81.28 23.208 81.008 23.624 80.816 24.104C80.608 24.584 80.504 25.08 80.504 25.592C80.504 26.28 80.696 26.928 81.08 27.536C81.352 27.968 81.736 28.32 82.232 28.592C82.728 28.864 83.296 29 83.936 29ZM101.984 28.184C102.144 28.184 102.4 28.16 102.752 28.112C103.088 28.08 103.4 27.984 103.688 27.824C103.976 27.664 104.12 27.408 104.12 27.056C104.12 26.848 104.072 26.688 103.976 26.576C103.912 26.496 103.848 26.456 103.784 26.456C103.72 26.456 103.704 26.496 103.736 26.576C103.784 26.816 103.696 27.04 103.472 27.248C103.248 27.472 103.024 27.616 102.8 27.68C102.64 27.712 102.488 27.736 102.344 27.752C102.2 27.784 102.064 27.8 101.936 27.8C101.296 27.8 100.712 27.632 100.184 27.296C99.656 26.976 99.184 26.56 98.768 26.048C98.336 25.552 97.952 25.048 97.616 24.536C97.136 23.8 96.664 22.96 96.2 22.016C95.736 21.072 95.256 20.104 94.76 19.112C94.264 18.104 93.744 17.128 93.2 16.184C92.64 15.24 92.032 14.4 91.376 13.664C90.72 12.912 90 12.336 89.216 11.936C88.704 11.664 88.216 11.528 87.752 11.528C87.496 11.528 87.264 11.56 87.056 11.624C86.992 11.64 86.976 11.68 87.008 11.744C87.024 11.808 87.064 11.832 87.128 11.816C87.192 11.784 87.264 11.768 87.344 11.768C87.408 11.768 87.48 11.768 87.56 11.768C88.392 11.768 89.264 12.304 90.176 13.376C90.88 14.208 91.488 15.096 92 16.04C92.512 16.968 92.984 17.928 93.416 18.92C93.848 19.896 94.296 20.864 94.76 21.824C95.208 22.784 95.744 23.704 96.368 24.584C96.8 25.192 97.288 25.76 97.832 26.288C98.376 26.832 98.976 27.272 99.632 27.608C100 27.784 100.384 27.92 100.784 28.016C101.168 28.128 101.568 28.184 101.984 28.184Z" fill="black"/>
</g>
<defs>
<clipPath id="clip0_13_6">
<rect width="109" height="38" fill="white"/>
</clipPath>
</defs>
</svg>
